<svg width="46" height="46" viewBox="0 0 46 46" fill="none" xmlns="http://www.w3.org/2000/svg">
<path d="M29.297 23.2207C26.86 24.9652 24.7293 27.1101 23.0001 29.5553C22.9775 29.5854 22.9549 29.6154 22.9323 29.6479C20.2494 33.4898 18.5503 38.0649 18.209 43.003H24.8723C26.476 43.003 27.884 41.9343 28.3031 40.39C30.0323 34.0053 35.3931 29.0948 42.0288 27.9936C37.5012 27.523 33.1569 25.9112 29.4074 23.3033C29.3697 23.2758 29.3321 23.2482 29.2944 23.2207H29.297Z" fill="#102B44"/>
<path d="M21.1251 3C19.5239 3 18.1134 4.0687 17.6968 5.61044C16.0027 11.855 10.8377 16.6929 4.40527 17.9318C8.67181 18.4624 12.858 20.0942 16.5925 22.6997C16.5925 22.6997 16.6703 22.7572 16.7054 22.7823C19.1424 21.0353 21.2731 18.8929 23.0023 16.4426C23.0249 16.4126 23.0475 16.3826 23.0701 16.35C25.753 12.5132 27.4521 7.93806 27.7934 3H21.1276L21.1251 3Z" fill="#102B44"/>
<path d="M22.7114 29.347C22.734 29.3145 22.7566 29.2869 22.7792 29.2544C21.0198 26.8342 18.8665 24.7093 16.4019 22.9999C16.3969 22.9974 16.3919 22.9924 16.3869 22.9899C12.5395 20.3093 7.95169 18.4873 3 18.1494V24.927C3 26.5263 4.07165 27.9304 5.61764 28.3459C11.897 30.0378 16.7583 35.2061 17.9831 41.6433C18.5051 37.2709 20.0988 33.0762 22.6386 29.4396L22.7089 29.3445L22.7114 29.347Z" fill="url(#paint0_linear_68_7)"/>
<path d="M40.3822 17.654C34.1054 15.9596 29.244 10.7888 28.0168 4.35156C27.4948 8.72648 25.9011 12.9212 23.3587 16.5528L23.291 16.6454C23.2684 16.6779 23.2433 16.708 23.2207 16.7405C24.98 19.1657 27.1334 21.2856 29.5979 23C29.6029 23.0025 29.608 23.0075 29.613 23.0101C33.4604 25.6856 38.0482 27.38 42.9999 27.7203V21.0729C42.9999 19.4761 41.9282 18.0695 40.3822 17.654Z" fill="#76C5EF"/>
<defs>
<linearGradient id="paint0_linear_68_7" x1="3.00251" y1="29.8976" x2="22.7817" y2="29.8976" gradientUnits="userSpaceOnUse">
<stop stop-color="#4CD9DF"/>
<stop offset="1" stop-color="#00C9D2"/>
</linearGradient>
</defs>
</svg>
