<svg width="394" height="114" viewBox="0 0 394 114" fill="none" xmlns="http://www.w3.org/2000/svg">
<path d="M126.797 32.1969V5.79688H131.897L143.097 24.3969H140.397L151.497 5.79688H156.497V32.1969H150.797V14.5969H151.797L142.997 29.3969H140.197L131.197 14.5969H132.497V32.1969H126.797Z" fill="white"/>
<path d="M168.898 27.2969H183.298V32.1969H162.898V5.79688H182.898V10.6969H168.998V27.2969H168.898ZM168.498 16.3969H181.198V21.1969H168.498V16.3969Z" fill="white"/>
<path d="M193.595 32.1969V10.7969H185.195V5.79688H208.195V10.7969H199.795V32.1969H193.695H193.595Z" fill="white"/>
<path d="M206.694 32.1969L218.494 5.79688H224.494L236.294 32.1969H229.894L220.194 8.89688H222.594L212.894 32.1969H206.594H206.694ZM212.594 26.4969L214.194 21.8969H227.794L229.494 26.4969H212.594Z" fill="white"/>
<path d="M123.397 65.1969L135.197 38.7969H141.197L152.997 65.1969H146.597L136.897 41.8969H139.297L129.597 65.1969H123.297H123.397ZM129.297 59.5969L130.897 54.9969H144.497L146.197 59.5969H129.297Z" fill="white"/>
<path d="M164.394 65.6969C162.294 65.6969 160.294 65.3969 158.294 64.8969C156.294 64.3969 154.794 63.5969 153.594 62.6969L155.694 58.0969C156.794 58.8969 158.194 59.5969 159.694 60.0969C161.194 60.5969 162.794 60.8969 164.394 60.8969C165.994 60.8969 166.594 60.7969 167.294 60.4969C167.994 60.2969 168.594 59.8969 168.894 59.4969C169.294 59.0969 169.394 58.5969 169.394 57.9969C169.394 57.3969 169.094 56.6969 168.594 56.2969C167.994 55.8969 167.294 55.4969 166.394 55.2969C165.494 55.0969 164.494 54.7969 163.394 54.4969C162.294 54.2969 161.194 53.9969 160.094 53.5969C158.994 53.1969 157.994 52.7969 157.094 52.1969C156.194 51.5969 155.494 50.8969 154.894 49.9969C154.294 49.0969 154.094 47.8969 154.094 46.4969C154.094 45.0969 154.494 43.5969 155.294 42.3969C156.094 41.1969 157.294 40.1969 158.994 39.3969C160.594 38.6969 162.694 38.2969 165.194 38.2969C167.694 38.2969 168.494 38.4969 170.094 38.8969C171.694 39.2969 173.094 39.8969 174.394 40.6969L172.494 45.2969C171.294 44.5969 169.994 44.0969 168.794 43.6969C167.594 43.3969 166.394 43.1969 165.194 43.1969C163.994 43.1969 163.094 43.2969 162.294 43.5969C161.494 43.8969 160.994 44.1969 160.694 44.6969C160.394 45.0969 160.194 45.5969 160.194 46.1969C160.194 46.7969 160.494 47.3969 160.994 47.7969C161.594 48.1969 162.294 48.4969 163.194 48.7969C164.094 49.0969 165.094 49.2969 166.194 49.5969C167.294 49.8969 168.394 50.0969 169.494 50.4969C170.594 50.7969 171.594 51.2969 172.494 51.7969C173.394 52.3969 174.094 53.0969 174.694 53.9969C175.294 54.8969 175.494 55.9969 175.494 57.3969C175.494 58.7969 175.094 60.1969 174.294 61.4969C173.494 62.6969 172.194 63.6969 170.594 64.4969C168.994 65.2969 166.894 65.5969 164.394 65.5969V65.6969Z" fill="white"/>
<path d="M188.495 65.6969C186.395 65.6969 184.395 65.3969 182.395 64.8969C180.395 64.3969 178.895 63.5969 177.695 62.6969L179.795 58.0969C180.895 58.8969 182.295 59.5969 183.795 60.0969C185.295 60.5969 186.895 60.8969 188.495 60.8969C190.095 60.8969 190.695 60.7969 191.395 60.4969C192.095 60.2969 192.695 59.8969 192.995 59.4969C193.395 59.0969 193.495 58.5969 193.495 57.9969C193.495 57.3969 193.195 56.6969 192.695 56.2969C192.095 55.8969 191.395 55.4969 190.495 55.2969C189.595 55.0969 188.595 54.7969 187.495 54.4969C186.395 54.2969 185.295 53.9969 184.195 53.5969C183.095 53.1969 182.095 52.7969 181.195 52.1969C180.295 51.5969 179.595 50.8969 178.995 49.9969C178.395 49.0969 178.195 47.8969 178.195 46.4969C178.195 45.0969 178.595 43.5969 179.395 42.3969C180.195 41.1969 181.395 40.1969 183.095 39.3969C184.695 38.6969 186.795 38.2969 189.295 38.2969C191.795 38.2969 192.595 38.4969 194.195 38.8969C195.795 39.2969 197.195 39.8969 198.495 40.6969L196.595 45.2969C195.395 44.5969 194.095 44.0969 192.895 43.6969C191.695 43.3969 190.495 43.1969 189.295 43.1969C188.095 43.1969 187.195 43.2969 186.395 43.5969C185.595 43.8969 185.095 44.1969 184.795 44.6969C184.495 45.0969 184.295 45.5969 184.295 46.1969C184.295 46.7969 184.595 47.3969 185.095 47.7969C185.695 48.1969 186.395 48.4969 187.295 48.7969C188.195 49.0969 189.195 49.2969 190.295 49.5969C191.395 49.8969 192.495 50.0969 193.595 50.4969C194.695 50.7969 195.695 51.2969 196.595 51.7969C197.495 52.3969 198.195 53.0969 198.795 53.9969C199.395 54.8969 199.595 55.9969 199.595 57.3969C199.595 58.7969 199.195 60.1969 198.395 61.4969C197.595 62.6969 196.295 63.6969 194.695 64.4969C193.095 65.2969 190.995 65.5969 188.495 65.5969V65.6969Z" fill="white"/>
<path d="M215.594 65.6984C211.894 65.6984 208.894 64.6984 206.794 62.5984C204.694 60.4984 203.594 57.4984 203.594 53.6984V38.8984H209.694V53.4984C209.694 55.9984 210.194 57.7984 211.194 58.8984C212.194 59.9984 213.694 60.5984 215.494 60.5984C217.294 60.5984 218.794 59.9984 219.794 58.8984C220.794 57.7984 221.294 55.9984 221.294 53.4984V38.8984H227.294V53.6984C227.294 57.5984 226.194 60.5984 224.094 62.5984C221.994 64.6984 219.094 65.6984 215.294 65.6984H215.594Z" fill="white"/>
<path d="M233.594 65.1969V38.7969H244.994C247.394 38.7969 249.394 39.1969 251.094 39.9969C252.794 40.7969 254.094 41.8969 255.094 43.2969C255.994 44.6969 256.494 46.3969 256.494 48.3969C256.494 50.3969 255.994 52.0969 255.094 53.4969C254.194 54.8969 252.794 55.9969 251.094 56.7969C249.394 57.5969 247.394 57.8969 244.994 57.8969H236.994L239.694 55.1969V65.1969H233.594ZM239.694 55.8969L236.994 52.9969H244.694C246.594 52.9969 247.994 52.5969 248.894 51.7969C249.794 50.9969 250.294 49.8969 250.294 48.3969C250.294 46.8969 249.794 45.7969 248.894 44.9969C247.994 44.1969 246.594 43.7969 244.694 43.7969H236.994L239.694 40.8969V55.8969ZM250.394 65.1969L243.794 55.5969H250.294L256.994 65.1969H250.394Z" fill="white"/>
<path d="M257.795 65.1969L269.595 38.7969H275.595L287.395 65.1969H280.995L271.295 41.8969H273.695L263.995 65.1969H257.695H257.795ZM263.695 59.5969L265.295 54.9969H278.895L280.595 59.5969H263.695Z" fill="white"/>
<path d="M290.195 65.1969V38.7969H295.295L310.895 57.7969H308.395V38.7969H314.395V65.1969H309.395L293.795 46.1969H296.295V65.1969H290.295H290.195Z" fill="white"/>
<path d="M333.3 65.7C331.3 65.7 329.4 65.4 327.6 64.7C325.9 64 324.3 63.1 323.1 61.9C321.8 60.7 320.8 59.2 320.1 57.6C319.4 55.9 319 54.1 319 52.1C319 50.1 319.4 48.3 320.1 46.6C320.8 44.9 321.8 43.5 323.1 42.3C324.4 41.1 325.9 40.1 327.6 39.5C329.3 38.8 331.2 38.5 333.3 38.5C335.4 38.5 337.7 38.9 339.5 39.7C341.3 40.5 342.9 41.7 344.2 43.2L340.3 46.8C339.4 45.8 338.4 45 337.3 44.5C336.2 44 335 43.7 333.7 43.7C332.4 43.7 331.3 43.9 330.3 44.3C329.3 44.7 328.4 45.3 327.6 46C326.8 46.8 326.3 47.6 325.8 48.7C325.4 49.7 325.2 50.9 325.2 52.1C325.2 53.3 325.4 54.5 325.8 55.5C326.2 56.5 326.8 57.4 327.6 58.2C328.4 59 329.2 59.5 330.3 59.9C331.3 60.3 332.5 60.5 333.7 60.5C334.9 60.5 336.2 60.2 337.3 59.7C338.4 59.2 339.4 58.4 340.3 57.3L344.2 60.9C342.9 62.4 341.4 63.6 339.5 64.4C337.7 65.2 335.6 65.6 333.3 65.6V65.7Z" fill="white"/>
<path d="M354.398 60.2969H368.798V65.1969H348.398V38.7969H368.398V43.6969H354.498V60.2969H354.398ZM353.898 49.4969H366.598V54.2969H353.898V49.4969Z" fill="white"/>
<path d="M382.3 65.6969C380.2 65.6969 378.2 65.3969 376.2 64.8969C374.2 64.3969 372.7 63.5969 371.5 62.6969L373.6 58.0969C374.7 58.8969 376.1 59.5969 377.6 60.0969C379.1 60.5969 380.7 60.8969 382.3 60.8969C383.9 60.8969 384.5 60.7969 385.2 60.4969C385.9 60.2969 386.5 59.8969 386.8 59.4969C387.2 59.0969 387.3 58.5969 387.3 57.9969C387.3 57.3969 387 56.6969 386.5 56.2969C385.9 55.8969 385.2 55.4969 384.3 55.2969C383.4 55.0969 382.4 54.7969 381.3 54.4969C380.2 54.2969 379.1 53.9969 378 53.5969C376.9 53.1969 375.9 52.7969 375 52.1969C374.1 51.5969 373.4 50.8969 372.8 49.9969C372.2 49.0969 372 47.8969 372 46.4969C372 45.0969 372.4 43.5969 373.2 42.3969C374 41.1969 375.2 40.1969 376.9 39.3969C378.5 38.6969 380.6 38.2969 383.1 38.2969C385.6 38.2969 386.4 38.4969 388 38.8969C389.6 39.2969 391 39.8969 392.3 40.6969L390.4 45.2969C389.2 44.5969 387.9 44.0969 386.7 43.6969C385.5 43.3969 384.3 43.1969 383.1 43.1969C381.9 43.1969 381 43.2969 380.2 43.5969C379.4 43.8969 378.9 44.1969 378.6 44.6969C378.3 45.0969 378.1 45.5969 378.1 46.1969C378.1 46.7969 378.4 47.3969 378.9 47.7969C379.5 48.1969 380.2 48.4969 381.1 48.7969C382 49.0969 383 49.2969 384.1 49.5969C385.2 49.8969 386.3 50.0969 387.4 50.4969C388.5 50.7969 389.5 51.2969 390.4 51.7969C391.3 52.3969 392 53.0969 392.6 53.9969C393.2 54.8969 393.4 55.9969 393.4 57.3969C393.4 58.7969 393 60.1969 392.2 61.4969C391.4 62.6969 390.1 63.6969 388.5 64.4969C386.9 65.2969 384.8 65.5969 382.3 65.5969V65.6969Z" fill="white"/>
<path d="M132.898 93.3984H147.298V98.2984H126.898V71.8984H146.898V76.7984H132.998V93.3984H132.898ZM132.498 82.4984H145.198V87.2984H132.498V82.4984Z" fill="white"/>
<path d="M157.595 98.2984V76.8984H149.195V71.8984H172.195V76.8984H163.795V98.2984H157.695H157.595Z" fill="white"/>
<path d="M198.8 98.7C196.8 98.7 194.9 98.4 193.1 97.7C191.4 97 189.8 96.1 188.6 94.9C187.3 93.7 186.3 92.2 185.6 90.6C184.9 89 184.5 87.1 184.5 85.1C184.5 83.1 184.9 81.3 185.6 79.6C186.3 77.9 187.3 76.5 188.6 75.3C189.9 74.1 191.4 73.1 193.1 72.5C194.8 71.8 196.7 71.5 198.8 71.5C200.9 71.5 203.2 71.9 205 72.7C206.8 73.5 208.4 74.7 209.7 76.2L205.8 79.8C204.9 78.8 203.9 78 202.8 77.5C201.7 77 200.5 76.7 199.2 76.7C197.9 76.7 196.8 76.9 195.8 77.3C194.8 77.7 193.9 78.3 193.1 79C192.3 79.8 191.8 80.6 191.3 81.7C190.8 82.8 190.7 83.9 190.7 85.1C190.7 86.3 190.9 87.5 191.3 88.5C191.7 89.5 192.3 90.4 193.1 91.2C193.9 92 194.7 92.5 195.8 92.9C196.8 93.3 198 93.5 199.2 93.5C200.4 93.5 201.7 93.2 202.8 92.7C203.9 92.2 204.9 91.4 205.8 90.3L209.7 93.9C208.4 95.4 206.9 96.6 205 97.4C203.2 98.2 201.1 98.6 198.8 98.6V98.7Z" fill="white"/>
<path d="M226 98.7C223.9 98.7 222 98.4 220.2 97.7C218.4 97 216.9 96.1 215.6 94.8C214.3 93.6 213.3 92.1 212.6 90.5C211.9 88.8 211.5 87 211.5 85.1C211.5 83.2 211.9 81.3 212.6 79.7C213.3 78.1 214.3 76.6 215.6 75.4C216.9 74.2 218.4 73.2 220.2 72.5C222 71.8 223.9 71.5 225.9 71.5C227.9 71.5 229.9 71.8 231.7 72.5C233.4 73.2 235 74.1 236.3 75.4C237.6 76.6 238.6 78.1 239.3 79.7C240 81.3 240.4 83.2 240.4 85.2C240.4 87.2 240 89 239.3 90.7C238.6 92.4 237.6 93.8 236.3 95C235 96.2 233.5 97.2 231.7 97.8C230 98.5 228 98.8 226 98.8V98.7ZM226 93.5C227.2 93.5 228.3 93.3 229.3 92.9C230.3 92.5 231.2 91.9 231.9 91.2C232.7 90.4 233.2 89.6 233.7 88.5C234.1 87.5 234.3 86.3 234.3 85.1C234.3 83.9 234.1 82.7 233.7 81.7C233.3 80.7 232.7 79.8 232 79C231.3 78.2 230.4 77.7 229.4 77.3C228.4 76.9 227.3 76.7 226.1 76.7C224.9 76.7 223.8 76.9 222.8 77.3C221.8 77.7 220.9 78.3 220.2 79C219.4 79.8 218.9 80.6 218.4 81.7C217.9 82.8 217.8 83.9 217.8 85.1C217.8 86.3 218 87.5 218.4 88.5C218.8 89.5 219.4 90.4 220.1 91.2C220.8 92 221.7 92.5 222.7 92.9C223.7 93.3 224.8 93.5 226 93.5Z" fill="white"/>
<path d="M245 98.2984V71.8984H250.1L265.7 90.8984H263.2V71.8984H269.2V98.2984H264.2L248.6 79.2984H251.1V98.2984H245.1H245Z" fill="white"/>
<path d="M284.198 98.6969C282.098 98.6969 280.098 98.3969 278.098 97.8969C276.198 97.2969 274.598 96.5969 273.398 95.6969L275.498 91.0969C276.598 91.8969 277.998 92.5969 279.498 93.0969C280.998 93.5969 282.598 93.8969 284.198 93.8969C285.798 93.8969 286.398 93.7969 287.098 93.4969C287.798 93.2969 288.398 92.8969 288.698 92.4969C289.098 92.0969 289.198 91.5969 289.198 90.9969C289.198 90.3969 288.898 89.6969 288.398 89.2969C287.798 88.8969 287.098 88.4969 286.198 88.2969C285.298 88.0969 284.298 87.7969 283.198 87.4969C282.098 87.1969 280.998 86.9969 279.898 86.5969C278.798 86.1969 277.798 85.7969 276.898 85.1969C275.998 84.5969 275.298 83.8969 274.698 82.9969C274.098 82.0969 273.898 80.8969 273.898 79.4969C273.898 78.0969 274.298 76.5969 275.098 75.3969C275.898 74.1969 277.098 73.1969 278.798 72.3969C280.398 71.6969 282.498 71.2969 284.998 71.2969C287.498 71.2969 288.298 71.4969 289.898 71.8969C291.498 72.2969 292.898 72.8969 294.198 73.6969L292.298 78.2969C291.098 77.5969 289.798 77.0969 288.598 76.6969C287.398 76.3969 286.198 76.1969 284.998 76.1969C283.798 76.1969 282.898 76.2969 282.098 76.5969C281.298 76.8969 280.798 77.1969 280.498 77.6969C280.198 78.0969 279.998 78.5969 279.998 79.1969C279.998 79.7969 280.298 80.3969 280.798 80.7969C281.298 81.1969 282.098 81.4969 282.998 81.7969C283.898 82.0969 284.898 82.2969 285.998 82.5969C287.098 82.8969 288.198 83.0969 289.298 83.4969C290.398 83.7969 291.398 84.2969 292.298 84.7969C293.198 85.2969 293.898 86.0969 294.498 86.9969C295.098 87.8969 295.298 88.9969 295.298 90.3969C295.298 91.7969 294.898 93.1969 294.098 94.4969C293.298 95.6969 291.998 96.6969 290.398 97.4969C288.798 98.2969 286.698 98.5969 284.198 98.5969V98.6969Z" fill="white"/>
<path d="M305.594 93.3984H319.994V98.2984H299.594V71.8984H319.594V76.7984H305.694V93.3984H305.594ZM305.194 82.4984H317.894V87.2984H305.194V82.4984Z" fill="white"/>
<path d="M324.898 98.2984V71.8984H330.998V98.2984H324.898Z" fill="white"/>
<path d="M337.297 98.2984V71.8984H343.397V93.2984H356.597V98.2984H337.297Z" fill="white"/>
<path d="M368.597 98.6969C366.497 98.6969 364.497 98.3969 362.497 97.8969C360.597 97.2969 358.997 96.5969 357.797 95.6969L359.897 91.0969C360.997 91.8969 362.397 92.5969 363.897 93.0969C365.397 93.5969 366.997 93.8969 368.597 93.8969C370.197 93.8969 370.797 93.7969 371.497 93.4969C372.197 93.2969 372.797 92.8969 373.097 92.4969C373.497 92.0969 373.597 91.5969 373.597 90.9969C373.597 90.3969 373.297 89.6969 372.797 89.2969C372.197 88.8969 371.497 88.4969 370.597 88.2969C369.697 88.0969 368.697 87.7969 367.597 87.4969C366.497 87.1969 365.397 86.9969 364.297 86.5969C363.197 86.1969 362.197 85.7969 361.297 85.1969C360.397 84.5969 359.697 83.8969 359.097 82.9969C358.497 82.0969 358.297 80.8969 358.297 79.4969C358.297 78.0969 358.697 76.5969 359.497 75.3969C360.297 74.1969 361.497 73.1969 363.197 72.3969C364.797 71.6969 366.897 71.2969 369.397 71.2969C371.897 71.2969 372.697 71.4969 374.297 71.8969C375.897 72.2969 377.297 72.8969 378.597 73.6969L376.697 78.2969C375.497 77.5969 374.197 77.0969 372.997 76.6969C371.797 76.3969 370.597 76.1969 369.397 76.1969C368.197 76.1969 367.297 76.2969 366.497 76.5969C365.697 76.8969 365.197 77.1969 364.897 77.6969C364.597 78.0969 364.397 78.5969 364.397 79.1969C364.397 79.7969 364.697 80.3969 365.197 80.7969C365.697 81.1969 366.497 81.4969 367.397 81.7969C368.297 82.0969 369.297 82.2969 370.397 82.5969C371.497 82.8969 372.597 83.0969 373.697 83.4969C374.797 83.7969 375.797 84.2969 376.697 84.7969C377.597 85.2969 378.297 86.0969 378.897 86.9969C379.497 87.8969 379.697 88.9969 379.697 90.3969C379.697 91.7969 379.297 93.1969 378.497 94.4969C377.697 95.6969 376.397 96.6969 374.797 97.4969C373.197 98.2969 371.097 98.5969 368.597 98.5969V98.6969Z" fill="white"/>
<path d="M74.0984 57.2031C67.1984 62.1031 61.1984 68.2031 56.3984 75.1031C56.3984 75.1031 56.2984 75.3031 56.1984 75.4031C48.5984 86.3031 43.7984 99.2031 42.8984 113.203H61.6984C66.1984 113.203 70.1984 110.203 71.3984 105.803C76.2984 87.7031 91.3984 73.9031 110.098 70.8031C97.2984 69.5031 85.0984 64.9031 74.4984 57.5031C74.3984 57.5031 74.2984 57.3031 74.1984 57.3031L74.0984 57.2031Z" fill="white"/>
<path d="M50.9969 0C46.4969 0 42.4969 2.99999 41.2969 7.39999C36.4969 25.1 21.9969 38.7 3.79688 42.2C15.7969 43.7 27.5969 48.3 38.1969 55.7C38.1969 55.7 38.3969 55.9 38.4969 55.9C45.3969 51 51.3969 44.9 56.1969 38C56.1969 38 56.2969 37.8 56.3969 37.7C63.9969 26.9 68.7969 13.9 69.6969 0H50.8969H50.9969Z" fill="white"/>
<path d="M55.5 74.4969C55.5 74.4969 55.6 74.2969 55.7 74.1969C50.7 67.3969 44.7 61.3969 37.7 56.4969C26.9 48.8969 13.9 43.7969 0 42.7969V61.9969C0 66.4969 3 70.4969 7.4 71.6969C25.1 76.4969 38.8 91.0969 42.3 109.297C43.8 96.8969 48.3 85.0969 55.4 74.7969L55.6 74.4969H55.5Z" fill="url(#paint0_linear_732_9156)"/>
<path d="M105.298 41.3969C87.5984 36.5969 73.8984 21.9969 70.3984 3.79688C68.8984 16.1969 64.3984 27.9969 57.2984 38.2969L57.0984 38.5969C57.0984 38.5969 56.9984 38.7969 56.8984 38.8969C61.8984 45.7969 67.8984 51.6969 74.8984 56.5969C85.6984 64.1969 98.6984 68.9969 112.598 69.8969V51.0969C112.598 46.5969 109.598 42.5969 105.198 41.3969H105.298Z" fill="#76C5EF"/>
<defs>
<linearGradient id="paint0_linear_732_9156" x1="-0.1" y1="75.9969" x2="55.7" y2="75.9969" gradientUnits="userSpaceOnUse">
<stop stop-color="#4CD9DF"/>
<stop offset="1" stop-color="#00C9D2"/>
</linearGradient>
</defs>
</svg>
