<svg width="110" height="40" viewBox="0 0 110 40" fill="none" xmlns="http://www.w3.org/2000/svg">
<g clip-path="url(#clip0_44_10)">
<path d="M26.207 20.2207C23.7782 21.9652 21.6545 24.1101 19.931 26.5553C19.9085 26.5854 19.886 26.6154 19.8635 26.6479C17.1895 30.4898 15.4961 35.0649 15.1559 40.003H21.7971C23.3955 40.003 24.7988 38.9343 25.2165 37.39C26.9399 31.0053 32.2829 26.0948 38.8966 24.9936C34.3841 24.523 30.0542 22.9112 26.3171 20.3033C26.2796 20.2758 26.2421 20.2482 26.2045 20.2207H26.207Z" fill="white"/>
<path d="M18.0626 0C16.4667 0 15.0609 1.0687 14.6457 2.61044C12.9573 8.85496 7.80939 13.6929 1.39832 14.9318C5.65068 15.4624 9.82301 17.0942 13.5451 19.6997C13.5451 19.6997 13.6226 19.7572 13.6576 19.7823C16.0865 18.0353 18.2102 15.8929 19.9336 13.4426C19.9562 13.4126 19.9787 13.3826 20.0012 13.35C22.6752 9.5132 24.3686 4.93806 24.7088 0H18.0651L18.0626 0Z" fill="white"/>
<path d="M19.6435 26.347C19.666 26.3145 19.6885 26.2869 19.711 26.2544C17.9576 23.8342 15.8114 21.7093 13.355 19.9999C13.35 19.9974 13.345 19.9924 13.34 19.9899C9.50536 17.3093 4.93281 15.4873 -0.00244141 15.1494V21.927C-0.00244141 23.5263 1.06565 24.9304 2.60651 25.3459C8.865 27.0378 13.7102 32.2061 14.9309 38.6433C15.4512 34.2709 17.0396 30.0762 19.571 26.4396L19.641 26.3445L19.6435 26.347Z" fill="url(#paint0_linear_44_10)"/>
<path d="M37.2558 14.654C30.9998 12.9596 26.1546 7.7888 24.9314 1.35156C24.4111 5.72648 22.8227 9.9212 20.2888 13.5528L20.2213 13.6454C20.1988 13.6779 20.1738 13.708 20.1512 13.7405C21.9047 16.1657 24.0509 18.2856 26.5073 20C26.5123 20.0025 26.5173 20.0075 26.5223 20.01C30.3569 22.6856 34.9295 24.38 39.8647 24.7203V18.0729C39.8647 16.4761 38.7966 15.0695 37.2558 14.654Z" fill="#76C5EF"/>
<path d="M45.1451 32.3812L46.2583 29.9209H46.606L47.7216 32.3812H47.3539L46.3608 30.1186H46.5009L45.5078 32.3812H45.1451ZM45.6179 31.7655L45.713 31.4852H47.0962L47.1988 31.7655H45.6179Z" fill="#76C5EF"/>
<path d="M49.505 32.4089C49.3174 32.4089 49.1398 32.3814 48.9672 32.3238C48.7971 32.2662 48.6621 32.1911 48.562 32.101L48.6921 31.8282C48.7871 31.9108 48.9047 31.9784 49.0498 32.031C49.1949 32.086 49.3449 32.111 49.5025 32.111C49.6451 32.111 49.7602 32.0935 49.8502 32.061C49.9403 32.0285 50.0053 31.9834 50.0478 31.9258C50.0904 31.8683 50.1104 31.8032 50.1104 31.7306C50.1104 31.6455 50.0829 31.5779 50.0278 31.5279C49.9728 31.4778 49.9028 31.4353 49.8127 31.4028C49.7252 31.3702 49.6276 31.3427 49.5225 31.3202C49.4175 31.2976 49.3124 31.2701 49.2049 31.2376C49.0973 31.205 49.0023 31.165 48.9122 31.1174C48.8247 31.0674 48.7546 31.0023 48.6996 30.9197C48.6471 30.8371 48.6195 30.7295 48.6195 30.5993C48.6195 30.4692 48.6521 30.3566 48.7196 30.249C48.7871 30.1413 48.8897 30.0562 49.0298 29.9912C49.1698 29.9261 49.3474 29.8936 49.5626 29.8936C49.7051 29.8936 49.8477 29.9136 49.9878 29.9486C50.1279 29.9837 50.2505 30.0412 50.353 30.1113L50.2379 30.3916C50.1329 30.3215 50.0203 30.2715 49.9053 30.2389C49.7877 30.2064 49.6751 30.1914 49.5651 30.1914C49.4275 30.1914 49.3124 30.2089 49.2249 30.2439C49.1348 30.279 49.0698 30.3265 49.0298 30.3841C48.9897 30.4417 48.9672 30.5092 48.9672 30.5818C48.9672 30.6694 48.9948 30.737 49.0498 30.7896C49.1048 30.8421 49.1774 30.8822 49.2649 30.9122C49.3525 30.9422 49.45 30.9698 49.5551 30.9948C49.6601 31.0198 49.7652 31.0474 49.8727 31.0774C49.9803 31.1074 50.0754 31.1475 50.1654 31.1975C50.253 31.2476 50.323 31.3127 50.378 31.3952C50.4331 31.4778 50.4581 31.583 50.4581 31.7106C50.4581 31.8382 50.423 31.9509 50.3555 32.056C50.288 32.1611 50.1829 32.2487 50.0403 32.3138C49.8978 32.3788 49.7202 32.4114 49.505 32.4114V32.4089Z" fill="#76C5EF"/>
<path d="M52.3892 32.4089C52.2016 32.4089 52.024 32.3814 51.8514 32.3238C51.6813 32.2662 51.5462 32.1911 51.4462 32.101L51.5762 31.8282C51.6713 31.9108 51.7889 31.9784 51.9339 32.031C52.079 32.086 52.2291 32.111 52.3867 32.111C52.5293 32.111 52.6443 32.0935 52.7344 32.061C52.8244 32.0285 52.8895 31.9834 52.932 31.9258C52.9745 31.8683 52.9945 31.8032 52.9945 31.7306C52.9945 31.6455 52.967 31.5779 52.912 31.5279C52.857 31.4778 52.7869 31.4353 52.6969 31.4028C52.6093 31.3702 52.5118 31.3427 52.4067 31.3202C52.3016 31.2976 52.1966 31.2701 52.089 31.2376C51.9815 31.205 51.8864 31.165 51.7964 31.1174C51.7088 31.0674 51.6388 31.0023 51.5837 30.9197C51.5312 30.8371 51.5037 30.7295 51.5037 30.5993C51.5037 30.4692 51.5362 30.3566 51.6038 30.249C51.6713 30.1413 51.7738 30.0562 51.9139 29.9912C52.054 29.9261 52.2316 29.8936 52.4467 29.8936C52.5893 29.8936 52.7319 29.9136 52.872 29.9486C53.012 29.9837 53.1346 30.0412 53.2372 30.1113L53.1221 30.3916C53.017 30.3215 52.9045 30.2715 52.7894 30.2389C52.6718 30.2064 52.5593 30.1914 52.4492 30.1914C52.3116 30.1914 52.1966 30.2089 52.109 30.2439C52.019 30.279 51.9539 30.3265 51.9139 30.3841C51.8739 30.4417 51.8514 30.5092 51.8514 30.5818C51.8514 30.6694 51.8789 30.737 51.9339 30.7896C51.989 30.8421 52.0615 30.8822 52.1491 30.9122C52.2366 30.9422 52.3342 30.9698 52.4392 30.9948C52.5443 31.0198 52.6493 31.0474 52.7569 31.0774C52.8645 31.1074 52.9595 31.1475 53.0496 31.1975C53.1371 31.2476 53.2071 31.3127 53.2622 31.3952C53.3172 31.4778 53.3422 31.583 53.3422 31.7106C53.3422 31.8382 53.3072 31.9509 53.2397 32.056C53.1721 32.1611 53.0671 32.2487 52.9245 32.3138C52.7819 32.3788 52.6043 32.4114 52.3892 32.4114V32.4089Z" fill="#76C5EF"/>
<path d="M55.5734 32.4087C55.2507 32.4087 54.9956 32.3161 54.8105 32.1309C54.6254 31.9457 54.5328 31.6754 54.5328 31.32V29.9209H54.883V31.305C54.883 31.5778 54.9431 31.7805 55.0631 31.9056C55.1832 32.0333 55.3533 32.0958 55.5734 32.0958C55.7935 32.0958 55.9661 32.0333 56.0887 31.9056C56.2088 31.7805 56.2688 31.5778 56.2688 31.305V29.9209H56.609V31.32C56.609 31.6754 56.5164 31.9457 56.3338 32.1309C56.1512 32.3161 55.8961 32.4087 55.5709 32.4087H55.5734Z" fill="#76C5EF"/>
<path d="M58.0348 32.3812V29.9209H58.9928C59.2079 29.9209 59.393 29.9559 59.5431 30.0235C59.6932 30.0911 59.8133 30.1887 59.8933 30.3188C59.9759 30.4465 60.0159 30.6017 60.0159 30.7794C60.0159 30.9571 59.9759 31.1097 59.8933 31.2374C59.8108 31.365 59.6932 31.4626 59.5431 31.5302C59.393 31.5978 59.2079 31.6328 58.9928 31.6328H58.2274L58.385 31.4701V32.3812H58.0348ZM58.3875 31.5052L58.2299 31.3325H58.9853C59.2104 31.3325 59.3805 31.2849 59.4956 31.1873C59.6107 31.0897 59.6682 30.9546 59.6682 30.7794C59.6682 30.6042 59.6107 30.4665 59.4956 30.3714C59.3805 30.2763 59.2104 30.2262 58.9853 30.2262H58.2299L58.3875 30.051V31.5052ZM59.6807 32.3812L59.0554 31.4877H59.4306L60.0634 32.3812H59.6807Z" fill="#76C5EF"/>
<path d="M60.9189 32.3812L62.0321 29.9209H62.3798L63.4954 32.3812H63.1277L62.1346 30.1186H62.2747L61.2817 32.3812H60.9189ZM61.3942 31.7655L61.4893 31.4852H62.8725L62.9751 31.7655H61.3942Z" fill="#76C5EF"/>
<path d="M64.5635 32.3812V29.9209H64.8511L66.477 31.9407H66.327V29.9209H66.6772V32.3812H66.3895L64.7636 30.3614H64.9137V32.3812H64.5635Z" fill="#76C5EF"/>
<path d="M69.2185 32.4093C69.0309 32.4093 68.8583 32.3793 68.7007 32.3167C68.5431 32.2541 68.4056 32.1665 68.2905 32.0539C68.1754 31.9413 68.0829 31.8061 68.0178 31.656C67.9528 31.5033 67.9203 31.3356 67.9203 31.1529C67.9203 30.9702 67.9528 30.8025 68.0178 30.6498C68.0829 30.4972 68.1754 30.3645 68.2905 30.2519C68.4056 30.1393 68.5456 30.0517 68.7032 29.9891C68.8608 29.9265 69.0334 29.8965 69.221 29.8965C69.4086 29.8965 69.5862 29.929 69.7463 29.9941C69.9064 30.0592 70.044 30.1543 70.1565 30.2794L69.9289 30.4997C69.8364 30.4021 69.7288 30.3295 69.6137 30.2794C69.4962 30.2319 69.3711 30.2068 69.2385 30.2068C69.1059 30.2068 68.9734 30.2294 68.8533 30.2769C68.7332 30.3245 68.6332 30.3895 68.5456 30.4746C68.4581 30.5597 68.3906 30.6598 68.343 30.775C68.2955 30.8901 68.2705 31.0177 68.2705 31.1529C68.2705 31.2881 68.2955 31.4157 68.343 31.5308C68.3906 31.646 68.4581 31.7461 68.5456 31.8312C68.6332 31.9163 68.7357 31.9813 68.8533 32.0289C68.9709 32.0764 69.0984 32.099 69.2385 32.099C69.3786 32.099 69.4962 32.0739 69.6137 32.0264C69.7313 31.9788 69.8364 31.9037 69.9289 31.8036L70.1565 32.0239C70.044 32.149 69.9064 32.2466 69.7463 32.3117C69.5862 32.3768 69.4086 32.4093 69.2185 32.4093Z" fill="#76C5EF"/>
<path d="M71.7099 32.0736H73.1432V32.379H71.3597V29.9187H73.0957V30.224H71.7124V32.0711L71.7099 32.0736ZM71.6799 30.9824H72.9431V31.2802H71.6799V30.9824Z" fill="#76C5EF"/>
<path d="M75.1319 32.4089C74.9443 32.4089 74.7667 32.3814 74.5941 32.3238C74.424 32.2662 74.2889 32.1911 74.1888 32.101L74.3189 31.8282C74.414 31.9108 74.5315 31.9784 74.6766 32.031C74.8217 32.086 74.9718 32.111 75.1294 32.111C75.2719 32.111 75.387 32.0935 75.4771 32.061C75.5671 32.0285 75.6321 31.9834 75.6747 31.9258C75.7172 31.8683 75.7372 31.8032 75.7372 31.7306C75.7372 31.6455 75.7097 31.5779 75.6547 31.5279C75.5996 31.4778 75.5296 31.4353 75.4395 31.4028C75.352 31.3702 75.2544 31.3427 75.1494 31.3202C75.0443 31.2976 74.9393 31.2701 74.8317 31.2376C74.7241 31.205 74.6291 31.165 74.539 31.1174C74.4515 31.0674 74.3815 31.0023 74.3264 30.9197C74.2739 30.8371 74.2464 30.7295 74.2464 30.5993C74.2464 30.4692 74.2789 30.3566 74.3464 30.249C74.414 30.1413 74.5165 30.0562 74.6566 29.9912C74.7967 29.9261 74.9743 29.8936 75.1894 29.8936C75.332 29.8936 75.4746 29.9136 75.6146 29.9486C75.7547 29.9837 75.8773 30.0412 75.9798 30.1113L75.8648 30.3916C75.7597 30.3215 75.6472 30.2715 75.5321 30.2389C75.4145 30.2064 75.302 30.1914 75.1919 30.1914C75.0543 30.1914 74.9393 30.2089 74.8517 30.2439C74.7617 30.279 74.6966 30.3265 74.6566 30.3841C74.6166 30.4417 74.5941 30.5092 74.5941 30.5818C74.5941 30.6694 74.6216 30.737 74.6766 30.7896C74.7316 30.8421 74.8042 30.8822 74.8917 30.9122C74.9793 30.9422 75.0768 30.9698 75.1819 30.9948C75.287 31.0198 75.392 31.0474 75.4996 31.0774C75.6071 31.1074 75.7022 31.1475 75.7922 31.1975C75.8798 31.2476 75.9498 31.3127 76.0049 31.3952C76.0599 31.4778 76.0849 31.583 76.0849 31.7106C76.0849 31.8382 76.0499 31.9509 75.9823 32.056C75.9148 32.1611 75.8097 32.2487 75.6672 32.3138C75.5246 32.3788 75.347 32.4114 75.1319 32.4114V32.4089Z" fill="#76C5EF"/>
<path d="M79.2967 32.0736H80.73V32.379H78.9465V29.9187H80.6825V30.224H79.2992V32.0711L79.2967 32.0736ZM79.2642 30.9824H80.5274V31.2802H79.2642V30.9824Z" fill="#76C5EF"/>
<path d="M82.4885 32.3812V30.2262H81.6455V29.9209H83.6791V30.2262H82.8362V32.3812H82.4885Z" fill="#76C5EF"/>
<path d="M87.5087 32.4093C87.3211 32.4093 87.1485 32.3793 86.9909 32.3167C86.8333 32.2541 86.6957 32.1665 86.5807 32.0539C86.4656 31.9413 86.373 31.8061 86.308 31.656C86.243 31.5033 86.2104 31.3356 86.2104 31.1529C86.2104 30.9702 86.243 30.8025 86.308 30.6498C86.373 30.4972 86.4656 30.3645 86.5807 30.2519C86.6957 30.1393 86.8358 30.0517 86.9934 29.9891C87.151 29.9265 87.3236 29.8965 87.5112 29.8965C87.6988 29.8965 87.8764 29.929 88.0365 29.9941C88.1966 30.0592 88.3341 30.1543 88.4467 30.2794L88.2191 30.4997C88.1265 30.4021 88.019 30.3295 87.9039 30.2794C87.7863 30.2319 87.6613 30.2068 87.5287 30.2068C87.3961 30.2068 87.2635 30.2294 87.1435 30.2769C87.0234 30.3245 86.9233 30.3895 86.8358 30.4746C86.7482 30.5597 86.6807 30.6598 86.6332 30.775C86.5857 30.8901 86.5606 31.0177 86.5606 31.1529C86.5606 31.2881 86.5857 31.4157 86.6332 31.5308C86.6807 31.646 86.7482 31.7461 86.8358 31.8312C86.9233 31.9163 87.0259 31.9813 87.1435 32.0289C87.261 32.0764 87.3886 32.099 87.5287 32.099C87.6688 32.099 87.7863 32.0739 87.9039 32.0264C88.0215 31.9788 88.1265 31.9037 88.2191 31.8036L88.4467 32.0239C88.3341 32.149 88.1966 32.2466 88.0365 32.3117C87.8764 32.3768 87.6988 32.4093 87.5087 32.4093Z" fill="#76C5EF"/>
<path d="M90.7081 32.4093C90.5205 32.4093 90.3479 32.3768 90.1878 32.3142C90.0277 32.2516 89.8876 32.1615 89.7726 32.0489C89.655 31.9363 89.5649 31.8036 89.4999 31.651C89.4349 31.4983 89.4023 31.3331 89.4023 31.1529C89.4023 30.9727 89.4349 30.8075 89.4999 30.6548C89.5649 30.5022 89.6575 30.3695 89.7726 30.2569C89.8901 30.1443 90.0277 30.0542 90.1878 29.9916C90.3479 29.929 90.5205 29.8965 90.7106 29.8965C90.9007 29.8965 91.0708 29.9265 91.2284 29.9891C91.3859 30.0517 91.5235 30.1393 91.6436 30.2519C91.7637 30.3645 91.8537 30.4997 91.9162 30.6498C91.9813 30.8025 92.0138 30.9702 92.0138 31.1529C92.0138 31.3356 91.9813 31.5033 91.9162 31.656C91.8512 31.8086 91.7612 31.9413 91.6436 32.0539C91.526 32.1665 91.3884 32.2541 91.2284 32.3167C91.0683 32.3793 90.8982 32.4093 90.7106 32.4093H90.7081ZM90.7081 32.0965C90.8431 32.0965 90.9707 32.0739 91.0858 32.0264C91.2008 31.9788 91.3034 31.9138 91.3885 31.8287C91.4735 31.7436 91.541 31.6435 91.5886 31.5283C91.6361 31.4132 91.6611 31.2881 91.6611 31.1529C91.6611 31.0177 91.6361 30.8926 91.5886 30.7775C91.541 30.6623 91.4735 30.5622 91.3885 30.4771C91.3034 30.392 91.2034 30.3245 91.0858 30.2794C90.9707 30.2319 90.8431 30.2093 90.7081 30.2093C90.573 30.2093 90.4429 30.2319 90.3279 30.2794C90.2128 30.327 90.1102 30.392 90.0252 30.4771C89.9376 30.5622 89.8701 30.6623 89.8226 30.7775C89.775 30.8926 89.75 31.0177 89.75 31.1529C89.75 31.2881 89.775 31.4132 89.8226 31.5283C89.8701 31.6435 89.9376 31.7436 90.0252 31.8287C90.1127 31.9138 90.2128 31.9813 90.3279 32.0264C90.4429 32.0739 90.5705 32.0965 90.7081 32.0965Z" fill="#76C5EF"/>
<path d="M93.252 32.3812V29.9209H93.5396L95.1655 31.9407H95.0154V29.9209H95.3656V32.3812H95.078L93.4521 30.3614H93.6022V32.3812H93.252Z" fill="#76C5EF"/>
<path d="M97.5219 32.4089C97.3343 32.4089 97.1567 32.3814 96.9841 32.3238C96.814 32.2662 96.6789 32.1911 96.5789 32.101L96.7089 31.8282C96.804 31.9108 96.9215 31.9784 97.0666 32.031C97.2117 32.086 97.3618 32.111 97.5194 32.111C97.662 32.111 97.777 32.0935 97.8671 32.061C97.9571 32.0285 98.0222 31.9834 98.0647 31.9258C98.1072 31.8683 98.1272 31.8032 98.1272 31.7306C98.1272 31.6455 98.0997 31.5779 98.0447 31.5279C97.9896 31.4778 97.9196 31.4353 97.8296 31.4028C97.742 31.3702 97.6445 31.3427 97.5394 31.3202C97.4343 31.2976 97.3293 31.2701 97.2217 31.2376C97.1142 31.205 97.0191 31.165 96.9291 31.1174C96.8415 31.0674 96.7715 31.0023 96.7164 30.9197C96.6639 30.8371 96.6364 30.7295 96.6364 30.5993C96.6364 30.4692 96.6689 30.3566 96.7364 30.249C96.804 30.1413 96.9065 30.0562 97.0466 29.9912C97.1867 29.9261 97.3643 29.8936 97.5794 29.8936C97.722 29.8936 97.8646 29.9136 98.0046 29.9486C98.1447 29.9837 98.2673 30.0412 98.3699 30.1113L98.2548 30.3916C98.1497 30.3215 98.0372 30.2715 97.9221 30.2389C97.8045 30.2064 97.692 30.1914 97.5819 30.1914C97.4443 30.1914 97.3293 30.2089 97.2417 30.2439C97.1517 30.279 97.0866 30.3265 97.0466 30.3841C97.0066 30.4417 96.9841 30.5092 96.9841 30.5818C96.9841 30.6694 97.0116 30.737 97.0666 30.7896C97.1217 30.8421 97.1942 30.8822 97.2817 30.9122C97.3693 30.9422 97.4669 30.9698 97.5719 30.9948C97.677 31.0198 97.782 31.0474 97.8896 31.0774C97.9971 31.1074 98.0922 31.1475 98.1823 31.1975C98.2698 31.2476 98.3398 31.3127 98.3949 31.3952C98.4499 31.4778 98.4749 31.583 98.4749 31.7106C98.4749 31.8382 98.4399 31.9509 98.3724 32.056C98.3048 32.1611 98.1998 32.2487 98.0572 32.3138C97.9146 32.3788 97.737 32.4114 97.5219 32.4114V32.4089Z" fill="#76C5EF"/>
<path d="M100.038 32.0736H101.471V32.379H99.688V29.9187H101.424V30.224H100.041V32.0711L100.038 32.0736ZM100.008 30.9824H101.271V31.2802H100.008V30.9824Z" fill="#76C5EF"/>
<path d="M102.742 32.3812V29.9209H103.092V32.3812H102.742Z" fill="#76C5EF"/>
<path d="M104.533 32.3812V29.9209H104.883V32.0758H106.214V32.3812H104.531H104.533Z" fill="#76C5EF"/>
<path d="M108.015 32.4089C107.828 32.4089 107.65 32.3814 107.477 32.3238C107.307 32.2662 107.172 32.1911 107.072 32.101L107.202 31.8282C107.297 31.9108 107.415 31.9784 107.56 32.031C107.705 32.086 107.855 32.111 108.013 32.111C108.155 32.111 108.27 32.0935 108.36 32.061C108.45 32.0285 108.515 31.9834 108.558 31.9258C108.6 31.8683 108.621 31.8032 108.621 31.7306C108.621 31.6455 108.593 31.5779 108.538 31.5279C108.483 31.4778 108.413 31.4353 108.323 31.4028C108.235 31.3702 108.138 31.3427 108.033 31.3202C107.928 31.2976 107.823 31.2701 107.715 31.2376C107.607 31.205 107.512 31.165 107.422 31.1174C107.335 31.0674 107.265 31.0023 107.21 30.9197C107.157 30.8371 107.13 30.7295 107.13 30.5993C107.13 30.4692 107.162 30.3566 107.23 30.249C107.297 30.1413 107.4 30.0562 107.54 29.9912C107.68 29.9261 107.858 29.8936 108.073 29.8936C108.215 29.8936 108.358 29.9136 108.498 29.9486C108.638 29.9837 108.761 30.0412 108.863 30.1113L108.748 30.3916C108.643 30.3215 108.53 30.2715 108.415 30.2389C108.298 30.2064 108.185 30.1914 108.075 30.1914C107.938 30.1914 107.823 30.2089 107.735 30.2439C107.645 30.279 107.58 30.3265 107.54 30.3841C107.5 30.4417 107.477 30.5092 107.477 30.5818C107.477 30.6694 107.505 30.737 107.56 30.7896C107.615 30.8421 107.687 30.8822 107.775 30.9122C107.863 30.9422 107.96 30.9698 108.065 30.9948C108.17 31.0198 108.275 31.0474 108.383 31.0774C108.49 31.1074 108.585 31.1475 108.676 31.1975C108.763 31.2476 108.833 31.3127 108.888 31.3952C108.943 31.4778 108.968 31.583 108.968 31.7106C108.968 31.8382 108.933 31.9509 108.866 32.056C108.798 32.1611 108.693 32.2487 108.55 32.3138C108.408 32.3788 108.23 32.4114 108.015 32.4114V32.4089Z" fill="#76C5EF"/>
<path d="M45.5353 11.578L48.5645 11.548V13.5602C49.1198 12.7143 49.8527 12.0911 50.7607 11.6881C51.6662 11.2852 52.6167 11.085 53.6048 11.085C54.7179 11.085 55.7535 11.3428 56.7115 11.8583C57.6695 12.3739 58.3549 13.1273 58.7676 14.1159C59.3029 13.0647 60.0609 12.2963 61.0389 11.8108C62.017 11.3277 63.0425 11.085 64.1156 11.085C64.816 11.085 65.4964 11.1876 66.1568 11.3953C66.8171 11.6005 67.3975 11.9059 67.9027 12.3088C68.408 12.7118 68.8157 13.2048 69.1234 13.793C69.4336 14.3812 69.5862 15.0669 69.5862 15.8503V26.8952H67.7927V15.8503C67.8127 15.087 67.7151 14.4337 67.5 13.8856C67.2824 13.34 66.9947 12.8945 66.6345 12.5541C66.2743 12.2137 65.8516 11.966 65.3663 11.8108C64.8811 11.6556 64.3808 11.578 63.8655 11.578C63.3077 11.578 62.7474 11.6656 62.1795 11.8408C61.6117 12.016 61.0964 12.2588 60.6337 12.5666C60.1709 12.877 59.7932 13.2424 59.5056 13.6654C59.2154 14.0883 59.0528 14.5589 59.0103 15.0719C59.0303 15.1946 59.0103 15.7002 59.0103 15.8453V26.8902H57.3093V15.8453C57.3293 15.0619 57.2318 14.3962 57.0167 13.8506C56.7991 13.305 56.5064 12.8595 56.1362 12.5216C55.766 12.1812 55.3382 11.9284 54.853 11.7632C54.3677 11.598 53.8674 11.5154 53.3521 11.5154C52.7743 11.5154 52.1965 11.603 51.6212 11.7782C51.0433 11.9534 50.5281 12.2062 50.0753 12.5366C49.6226 12.867 49.2548 13.2474 48.9772 13.6804C48.6995 14.1134 48.5595 14.5989 48.5595 15.1345V26.8902H46.766V12.3489L45.5303 11.8533V11.5755L45.5353 11.578Z" fill="white"/>
<path d="M86.6558 11.5779H88.852V4.33978L87.6163 3.81418V3.56641H90.6455V11.5779H94.7878V12.0409H90.6455V23.5489C90.6255 24.2497 90.698 24.8228 90.8631 25.2658C91.0282 25.7088 91.2533 26.0542 91.5435 26.302C91.9562 26.6524 92.4815 26.8276 93.1194 26.8276C93.9848 26.8276 94.9029 26.5172 95.8709 25.899L96.1185 26.2094C95.4382 26.6223 94.8153 26.9052 94.2475 27.0603C93.6797 27.2155 93.1694 27.2931 92.7166 27.2931C91.4184 27.2931 90.4479 26.9102 89.81 26.1493C89.1697 25.386 88.852 24.3548 88.852 23.0558V12.0434H86.6558V11.5804V11.5779Z" fill="white"/>
<path d="M85.2025 17.147H76.0149V16.684H83.2564C83.9993 16.684 84.3995 16.4988 84.4621 16.1259C84.5246 15.753 84.4321 15.3024 84.1844 14.7643C83.6491 13.6706 82.9362 12.8872 82.0507 12.4142C81.1652 11.9387 80.2672 11.7034 79.3617 11.7034C78.6388 11.7034 77.981 11.8385 77.3831 12.1063C76.7853 12.3742 76.25 12.7396 75.7747 13.2051C75.2995 13.6681 74.8992 14.2012 74.5691 14.7994C74.2389 15.3976 73.9912 16.0258 73.8262 16.6865L73.7336 17.1495C73.5885 17.7677 73.5285 18.4184 73.5485 19.0992C73.5485 20.3356 73.7286 21.4243 74.0888 22.3629C74.449 23.3014 74.9243 24.0848 75.5121 24.713C76.0999 25.3412 76.7703 25.8168 77.5207 26.1371C78.2736 26.4575 79.0416 26.6177 79.8245 26.6177C80.67 26.6177 81.4979 26.4325 82.3134 26.062C83.1263 25.6916 83.8542 25.1235 84.4921 24.3601L84.8323 24.6379C84.1094 25.5239 83.2389 26.1847 82.2208 26.6177C81.2028 27.0507 80.1547 27.2684 79.0816 27.2684C78.1536 27.2684 77.2481 27.1032 76.3601 26.7729C75.4746 26.4425 74.6791 25.9369 73.9787 25.2561C73.2783 24.5754 72.7105 23.7244 72.2778 22.7033C71.8451 21.6821 71.6174 20.4908 71.5974 19.1293C71.5974 18.0355 71.7575 17.0044 72.0777 16.0358C72.3979 15.0672 72.8606 14.2212 73.4684 13.4979C74.0763 12.7771 74.8242 12.199 75.7097 11.766C76.5952 11.333 77.5958 11.1152 78.7089 11.1152C79.5318 11.1152 80.3373 11.2504 81.1202 11.5182C81.9031 11.786 82.5985 12.1739 83.2064 12.677C83.8142 13.1826 84.2995 13.8108 84.6597 14.5641C85.0199 15.3175 85.2 16.1784 85.2 17.147H85.2025Z" fill="white"/>
<path d="M108.701 13.7132C108.41 13.155 108.03 12.682 107.557 12.2891C107.082 11.8986 106.537 11.6033 105.919 11.4081C105.301 11.2128 104.661 11.1152 104.003 11.1152C103.425 11.1152 102.842 11.1978 102.257 11.363C101.669 11.5282 101.129 11.786 100.634 12.1364C100.138 12.4868 99.6955 12.9248 99.3053 13.4504C98.9126 13.976 98.6249 14.5992 98.4398 15.3225L98.9351 15.4151C99.1002 14.7969 99.3528 14.2563 99.693 13.7907C100.033 13.3252 100.418 12.9298 100.851 12.5994C101.284 12.269 101.752 12.0213 102.257 11.8561C102.762 11.6909 103.262 11.6083 103.758 11.6083C104.623 11.6083 105.401 11.8761 106.092 12.4117C106.782 12.9473 107.2 13.7832 107.345 14.917L107.375 16.5263V23.0537C107.332 23.5067 107.17 23.9472 106.879 24.3676C106.592 24.7906 106.229 25.166 105.796 25.4964C105.364 25.8268 104.878 26.0846 104.343 26.2698C103.808 26.455 103.26 26.5476 102.705 26.5476C102.415 26.5476 102.137 26.5226 101.869 26.47C101.602 26.42 101.344 26.3298 101.096 26.2072C100.621 25.9795 100.236 25.6516 99.9356 25.2161C99.6355 24.7831 99.4404 24.3101 99.3478 23.792C99.2552 23.2764 99.2653 22.7608 99.3778 22.2453C99.4904 21.7297 99.713 21.2867 100.043 20.9138C100.538 20.3782 101.141 19.9752 101.852 19.7074C102.562 19.4396 103.275 19.1868 103.985 18.949C104.511 18.7738 105.008 18.5686 105.484 18.3309V17.8453C105.154 18.0255 104.796 18.1832 104.403 18.3133C103.848 18.4985 103.265 18.6837 102.657 18.869C102.049 19.0542 101.451 19.2519 100.864 19.4571C100.276 19.6649 99.7255 19.9201 99.2102 20.2305C98.4873 20.6635 97.9795 21.2266 97.6794 21.9174C97.3792 22.6082 97.2766 23.2989 97.3692 23.9897C97.4617 24.6805 97.7544 25.3162 98.2497 25.8919C98.745 26.47 99.4353 26.8705 100.321 27.0982C100.816 27.2208 101.331 27.2834 101.867 27.2834C102.98 27.2834 104.04 27.0356 105.051 26.5401C106.062 26.0445 106.844 25.3237 107.4 24.3752L108.668 26.8805H109.131V15.6203C109.131 14.8995 108.986 14.2588 108.698 13.7031L108.701 13.7132Z" fill="white"/>
</g>
<defs>
<linearGradient id="paint0_linear_44_10" x1="5.99876e-05" y1="26.8976" x2="19.7135" y2="26.8976" gradientUnits="userSpaceOnUse">
<stop stop-color="#4CD9DF"/>
<stop offset="1" stop-color="#00C9D2"/>
</linearGradient>
<clipPath id="clip0_44_10">
<rect width="109.136" height="40" fill="white"/>
</clipPath>
</defs>
</svg>
